<svg xmlns="http://www.w3.org/2000/svg" version="1.1" xmlns:xlink="http://www.w3.org/1999/xlink" xmlns:svgjs="http://svgjs.dev/svgjs" viewBox="0 0 800 400"><path d="M239.06808471679688,181.36199951171875C243.100341796875,184.3488566080729,254.89842224121094,202.2699991861979,263.2616271972656,199.28314208984375C271.6248321533203,196.2962849934896,281.33213806152344,160.7526830037435,289.247314453125,163.44085693359375C297.16249084472656,166.129030863444,299.4026285807292,218.9964141845703,310.752685546875,215.4121856689453C322.1027425130208,211.8279571533203,345.54957071940106,139.39665730794272,357.34765625,141.93548583984375C369.14574178059894,144.47431437174478,366.7562510172526,232.8853022257487,381.54119873046875,230.64515686035156C396.3261464436849,228.40501149495444,433.3631947835286,125.95578511555989,446.0573425292969,128.49461364746094C458.7514902750651,131.03344217936197,443.5185089111328,251.40381368001303,457.7060852050781,245.8781280517578C471.89366149902344,240.3524424235026,517.4432525634766,93.24969736735027,531.1828002929688,95.34049987792969C544.9223480224609,97.43130238850911,527.7479146321615,263.0525728861491,540.1433715820312,258.4229431152344C552.538828531901,253.79331334431967,593.0107421875,66.51732126871745,605.5555419921875,67.5627212524414C618.100341796875,68.60812123616536,613.7693990071615,231.83990605672201,615.4121704101562,264.6953430175781" fill="none" stroke-width="25" stroke="hsl(180, 69%, 30%)" stroke-linecap="round"></path><defs><linearGradient id="SvgjsLinearGradient1000"><stop stop-color="hsl(37, 99%, 67%)" offset="0"></stop><stop stop-color="hsl(316, 73%, 52%)" offset="1"></stop></linearGradient></defs></svg>