<svg xmlns="http://www.w3.org/2000/svg" version="1.1" xmlns:xlink="http://www.w3.org/1999/xlink" xmlns:svgjs="http://svgjs.dev/svgjs" viewBox="0 0 800 400"><path d="M107.34765625,37.99283218383789C107.1983133951823,42.77180544535319,104.06211217244466,57.706098556518555,106.45159912109375,66.66667175292969C108.84108606974284,75.62724494934082,114.66546122233073,85.7825558980306,121.68457794189453,91.75627136230469C128.70369466145834,97.72998682657878,137.36558405558267,100.86619186401367,148.56629943847656,102.50896453857422C159.76701482137045,104.15173721313477,178.43486785888672,101.91159311930339,188.8888702392578,101.61290740966797C199.3428726196289,101.31422170003255,204.2711970011393,101.16487884521484,211.29031372070312,100.71685028076172C218.30943044026694,100.2688217163086,223.3870849609375,98.92473602294922,231.00357055664062,98.92473602294922C238.62005615234375,98.92473602294922,249.82077026367188,98.92473602294922,256.9892272949219,100.71685028076172C264.1576843261719,102.50896453857422,269.23533630371094,105.19713592529297,274.0143127441406,109.67742156982422C278.7932891845703,114.15770721435547,283.4229380289714,121.0274772644043,285.6630859375,127.59856414794922C287.9032338460286,134.16965103149414,289.0979766845703,142.3835131327311,287.4552001953125,149.10394287109375C285.8124237060547,155.8243726094564,282.0788319905599,164.3369140625,275.8064270019531,167.921142578125C269.5340220133464,171.50537109375,256.69054158528644,173.14814249674478,249.82077026367188,170.60931396484375C242.95099894205728,168.07048543294272,237.87334187825522,159.85662968953451,234.58779907226562,152.68817138671875C231.30225626627603,145.51971308390299,228.91277058919272,133.5722796122233,230.10751342773438,127.59856414794922C231.30225626627603,121.62484868367513,233.39305623372397,122.22222264607747,241.75625610351562,116.84587860107422C250.11945597330728,111.46953455607097,270.4300791422526,99.22341537475586,280.2867126464844,95.34049987792969C290.1433461507161,91.45758438110352,293.4289093017578,92.80167007446289,300.89605712890625,93.54838562011719C308.3632049560547,94.29510116577148,318.0704854329427,96.68459192911784,325.089599609375,99.82079315185547C332.1087137858073,102.9569943745931,338.38111368815106,106.5412203470866,343.0107421875,112.36559295654297C347.64037068684894,118.18996556599934,350.3285420735677,127.598570505778,352.86737060546875,134.76702880859375C355.4061991373698,141.93548711140951,356.30225626627606,148.65591430664062,358.24371337890625,155.3763427734375C360.18517049153644,162.09677124023438,361.82794189453125,169.713254292806,364.51611328125,175.089599609375C367.20428466796875,180.465944925944,368.6977132161458,184.05018361409506,374.37274169921875,187.63441467285156C380.0477701822917,191.21864573160806,389.7550506591797,194.65352884928384,398.5662841796875,196.59498596191406C407.3775177001953,198.53644307454428,418.2795664469401,198.23775736490884,427.2401428222656,199.2831573486328C436.2007191975911,200.32855733235678,444.2652282714844,202.5687001546224,452.3297424316406,202.8673858642578C460.3942565917969,203.16607157389322,466.8159993489583,200.17921447753906,475.6272277832031,201.0752716064453C484.43845621744794,201.97132873535156,496.9832509358724,204.3608144124349,505.1971130371094,208.2437286376953C513.4109751383463,212.12664286295572,520.4301096598307,218.39904022216797,524.910400390625,224.3727569580078C529.3906911214193,230.34647369384766,530.8841145833334,237.9629694620768,532.078857421875,244.08602905273438C533.2736002604166,250.20908864339194,531.9295145670573,254.68937174479166,532.078857421875,261.1111145019531C532.2282002766927,267.53285725911456,531.033457438151,276.1947428385417,532.9749145507812,282.6164855957031C534.9163716634115,289.03822835286456,538.5006001790365,294.5639139811198,543.7276000976562,299.6415710449219C548.954600016276,304.71922810872394,556.5710856119791,310.09557088216144,564.3369140625,313.0824279785156C572.1027425130209,316.0692850748698,582.5567423502604,316.51731363932294,590.3225708007812,317.5627136230469C598.0883992513021,318.6081136067708,603.763427734375,319.50417073567706,610.931884765625,319.3548278808594C618.100341796875,319.2054850260417,629.5997416178385,317.11468505859375,633.3333129882812,316.6666564941406" fill="none" stroke-width="14" stroke="hsl(180, 69%, 30%)" stroke-linecap="round"></path><defs><linearGradient id="SvgjsLinearGradient1005"><stop stop-color="hsl(37, 99%, 67%)" offset="0"></stop><stop stop-color="hsl(316, 73%, 52%)" offset="1"></stop></linearGradient></defs></svg>