<svg xmlns="http://www.w3.org/2000/svg" version="1.1" xmlns:xlink="http://www.w3.org/1999/xlink" xmlns:svgjs="http://svgjs.dev/svgjs" viewBox="0 0 800 400"><path d="M143.18995666503906,204.6595001220703C148.56629943847656,202.5687001546224,163.7992680867513,193.7574717203776,175.44801330566406,192.1147003173828C187.0967585245768,190.47192891438803,202.0310541788737,192.86141459147134,213.08242797851562,194.80287170410156C224.13380177815756,196.74432881673178,229.0621083577474,201.82198588053384,241.75625610351562,203.76344299316406C254.45040384928384,205.70490010579428,274.76105244954425,208.2437286376953,289.247314453125,206.4516143798828C303.73357645670575,204.6595001220703,316.42771402994794,197.1923573811849,328.673828125,193.01075744628906C340.91994222005206,188.82915751139322,350.17919921875,182.8554433186849,362.7239990234375,181.3620147705078C375.268798828125,179.86858622233072,392.144536336263,181.3620147705078,403.942626953125,184.05018615722656C415.740717569987,186.7383575439453,420.8183949788411,193.7574717203776,433.5125427246094,197.4910430908203C446.2066904703776,201.22461446126303,463.2317657470703,206.75030008951822,480.1075134277344,206.4516143798828C496.98326110839844,206.1529286702474,516.3978525797526,198.38710021972656,534.7670288085938,195.6989288330078C553.1362050374349,193.01075744628906,571.50537109375,189.42652893066406,590.3225708007812,190.3225860595703C609.1397705078125,191.21864318847656,632.1385701497396,198.38710021972656,647.6702270507812,201.0752716064453C663.2018839518229,203.76344299316406,672.7598266601562,206.1529286702474,683.5125122070312,206.4516143798828C694.2651977539062,206.75030008951822,702.6283874511719,205.70490010579428,712.1863403320312,202.8673858642578C721.7442932128906,200.02987162272134,729.808848063151,191.8160146077474,740.8602294921875,189.42652893066406C751.911610921224,187.03704325358072,772.2222290039062,188.67981465657553,778.49462890625,188.5304718017578" fill="none" stroke-width="25" stroke="hsl(180, 69%, 30%)" stroke-linecap="round" transform="matrix(1.1576250000000001,0,0,1.1576250000000001,-133.4825680179597,-24.481965764045754)"></path><defs><linearGradient id="SvgjsLinearGradient1009"><stop stop-color="hsl(37, 99%, 67%)" offset="0"></stop><stop stop-color="hsl(316, 73%, 52%)" offset="1"></stop></linearGradient></defs></svg>