<svg xmlns="http://www.w3.org/2000/svg" version="1.1" xmlns:xlink="http://www.w3.org/1999/xlink" xmlns:svgjs="http://svgjs.dev/svgjs" viewBox="0 0 800 400"><path d="M40.14335632324219,178.67384338378906C44.7729860941569,174.1935551961263,57.616475423177086,157.76583099365234,67.92113494873047,151.7921142578125C78.22579447428386,145.81839752197266,90.17322413126628,143.1302286783854,101.9713134765625,142.83154296875C113.76940282185872,142.5328572591146,127.9569829305013,145.81840006510416,138.7096710205078,150C149.4623591105143,154.18159993489584,160.36438496907553,161.3500544230143,166.48744201660156,167.921142578125C172.6104990641276,174.4922307332357,174.4026133219401,181.2126693725586,175.44801330566406,189.42652893066406C176.49341328938803,197.64038848876953,177.38947041829428,210.18518575032553,172.7598419189453,217.2042999267578C168.13021341959634,224.2234141031901,157.0788434346517,229.5997568766276,147.6702423095703,231.5412139892578C138.26164118448892,233.48267110188803,124.3727518717448,233.3333282470703,116.30823516845703,228.85304260253906C108.24371846516927,224.3727569580078,101.37394332885742,213.02269999186197,99.28314208984375,204.6595001220703C97.19234085083008,196.29630025227866,99.13379796346028,186.2903315226237,103.763427734375,178.67384338378906C108.39305750528972,171.05735524495444,116.45757548014323,165.5316594441732,127.06092071533203,158.9605712890625C137.66426595052084,152.3894831339518,155.28672409057617,143.27957153320312,167.3834991455078,139.247314453125C179.48027420043945,135.21505737304688,188.73954010009766,135.81242879231772,199.64157104492188,134.76702880859375C210.5436019897461,133.72162882486978,221.44562784830728,132.22820027669272,232.79568481445312,132.97491455078125C244.14574178059897,133.72162882486978,257.7359364827474,135.3644002278646,267.7419128417969,139.247314453125C277.7478892008464,143.1302286783854,284.91636657714844,149.55196889241537,292.83154296875,156.27239990234375C300.74671936035156,162.99283091227213,311.05137125651044,171.20669809977213,315.23297119140625,179.5699005126953C319.41457112630206,187.9331029256185,318.66785685221356,198.08841451009116,317.921142578125,206.4516143798828C317.17442830403644,214.81481424967447,314.9342854817708,223.17801157633463,310.752685546875,229.7490997314453C306.5710856119792,236.320187886556,300.29869079589844,242.8912836710612,292.83154296875,245.87814331054688C285.36439514160156,248.86500295003256,275.0597178141276,250.05974578857422,265.9497985839844,247.67025756835938C256.8398793538411,245.28076934814453,242.35362752278647,240.0537592569987,238.17202758789062,231.5412139892578C233.99042765299478,223.02866872151694,237.7239990234375,206.30227406819662,240.86019897460938,196.59498596191406C243.99639892578125,186.8876978556315,244.89245096842447,182.2580591837565,256.9892272949219,173.2974853515625C269.08600362141925,164.3369115193685,297.6105092366536,148.35722859700522,313.44085693359375,142.83154296875C329.2712046305339,137.30585734049478,340.17322794596356,140.59140014648438,351.9713134765625,140.14337158203125C363.76939900716144,139.69534301757812,372.8793080647786,138.05257161458334,384.2293701171875,140.14337158203125C395.5794321695964,142.23417154947916,409.76702372233075,147.9092000325521,420.0716857910156,152.68817138671875C430.3763478597005,157.4671427408854,439.7849426269531,162.39545440673828,446.0573425292969,168.81719970703125C452.3297424316406,175.23894500732422,455.76462809244794,183.75149790445963,457.7060852050781,191.21864318847656C459.6475423177083,198.6857884724935,459.34885660807294,206.0035858154297,457.7060852050781,213.6200714111328C456.0633138020833,221.23655700683594,451.13499959309894,231.0931828816732,447.8494567871094,236.9175567626953C444.5639139811198,242.74193064371744,443.81719970703125,245.72879791259766,437.9928283691406,248.56631469726562C432.16845703125,251.4038314819336,420.9677480061849,253.7933146158854,412.9032287597656,253.94265747070312C404.8387095133464,254.09200032552084,396.774175008138,253.64397430419922,389.605712890625,249.46237182617188C382.437250773112,245.28076934814453,373.0286560058594,237.21624501546225,369.8924560546875,228.85304260253906C366.7562561035156,220.48984018961588,368.84705607096356,208.2437311808268,370.78851318359375,199.2831573486328C372.72997029622394,190.3225835164388,378.10631306966144,180.76463063557944,381.54119873046875,175.089599609375C384.97608439127606,169.41456858317056,386.91754150390625,168.81719970703125,391.3978271484375,165.23297119140625C395.87811279296875,161.64874267578125,398.8649648030599,157.76582845052084,408.42291259765625,153.584228515625C417.9808603922526,149.40262858072916,436.2007090250651,142.83154296875,448.7455139160156,140.14337158203125C461.2903188069661,137.4552001953125,473.2377421061198,137.1565144856771,483.6917419433594,137.4552001953125C494.14574178059894,137.7538859049479,503.4049936930339,138.64994303385416,511.4695129394531,141.93548583984375C519.5340321858724,145.22102864583334,527.2998809814453,152.53882853190103,532.078857421875,157.16845703125C536.8578338623047,161.79808553059897,537.6045430501302,162.6941401163737,540.1433715820312,169.7132568359375C542.6822001139323,176.7323735555013,545.9677429199219,191.9653549194336,547.3118286132812,199.2831573486328C548.6559143066406,206.60095977783203,548.3572285970052,207.34767150878906,548.2078857421875,213.6200714111328C548.0585428873698,219.89247131347656,547.9092000325521,229.45041147867838,546.415771484375,236.9175567626953C544.9223429361979,244.38470204671225,541.4874572753906,252.15054066975912,539.247314453125,258.4229431152344C537.0071716308594,264.69534556070965,535.0657145182291,270.66905721028644,532.9749145507812,274.5519714355469C530.8841145833334,278.4348856608073,527.7479146321615,280.5256856282552,526.7025146484375,281.7204284667969" fill="none" stroke-width="29" stroke="hsl(180, 69%, 30%)" stroke-linecap="round" transform="matrix(0.9396926207859086,0.3420201433256687,-0.3420201433256687,0.9396926207859086,88.62770673015493,-88.13883592634161)"></path><defs><linearGradient id="SvgjsLinearGradient1007"><stop stop-color="hsl(37, 99%, 67%)" offset="0"></stop><stop stop-color="hsl(316, 73%, 52%)" offset="1"></stop></linearGradient></defs></svg>