<svg xmlns="http://www.w3.org/2000/svg" version="1.1" xmlns:xlink="http://www.w3.org/1999/xlink" xmlns:svgjs="http://svgjs.dev/svgjs" viewBox="0 0 800 400"><path d="M298.2078857421875,78.31541442871094C309.5579427083333,81.45161437988281,340.91993713378906,86.52926890055339,366.3082275390625,97.13261413574219C391.69651794433594,107.73595937093098,433.5125376383464,123.11828104654948,450.5376281738281,141.93548583984375C467.5627187093099,160.75269063313803,465.91994222005206,187.33572387695312,468.4587707519531,210.0358428955078C470.9975992838542,232.7359619140625,473.9844563802083,255.58542124430338,465.7705993652344,278.1361999511719C457.55674235026044,300.68697865804035,439.9342905680339,332.1983388264974,419.1756286621094,345.34051513671875C398.4169667561849,358.4826914469401,364.9641520182292,358.03465779622394,341.2186279296875,356.9892578125C317.4731038411458,355.94385782877606,291.9354604085286,351.0155487060547,276.7024841308594,339.068115234375C261.4695078531901,327.1206817626953,250.86617024739584,303.0764643351237,249.82077026367188,285.3046569824219C248.7753702799479,267.53284962972003,259.08002217610675,247.3715591430664,270.4300842285156,232.43727111816406C281.7801462809245,217.50298309326172,300.1493377685547,201.82198588053384,317.921142578125,195.6989288330078C335.6929473876953,189.57587178548178,359.7371368408203,190.77061462402344,377.0609130859375,195.6989288330078C394.3846893310547,200.6272430419922,415.4420522054036,211.23058319091797,421.8638000488281,225.26881408691406C428.2855478922526,239.30704498291016,425.89606221516925,265.1433690388997,415.5914001464844,279.9283142089844C405.2867380777995,294.71325937906903,375.56748962402344,309.6475423177083,360.03582763671875,313.9784851074219C344.50416564941406,318.30942789713544,330.16725667317706,313.8291422526042,322.40142822265625,305.9139709472656C314.63559977213544,297.99879964192706,308.8112284342448,277.83751678466797,313.44085693359375,266.4874572753906C318.0704854329427,255.13739776611328,338.9784851074219,238.11229960123697,350.17919921875,237.81361389160156C361.3799133300781,237.51492818196616,375.56748453776044,260.21505482991535,380.6451416015625,264.6953430175781" fill="none" stroke-width="25" stroke="hsl(205, 69%, 50%)" stroke-linecap="round"></path><defs><linearGradient id="SvgjsLinearGradient1001"><stop stop-color="hsl(37, 99%, 67%)" offset="0"></stop><stop stop-color="hsl(316, 73%, 52%)" offset="1"></stop></linearGradient></defs></svg>