<svg xmlns="http://www.w3.org/2000/svg" version="1.1" xmlns:xlink="http://www.w3.org/1999/xlink" xmlns:svgjs="http://svgjs.dev/svgjs" viewBox="0 0 800 400"><path d="M50.89604568481445,87.27598571777344C55.00596159617106,85.47789774576823,68.52447734832764,77.6851875813802,79.56987762451172,74.73118591308594C90.6152779006958,71.77718424479167,114.34287991841634,67.1804111735026,127.95697784423828,66.66667175292969C141.57107577006022,66.15293233235677,163.249685643514,67.80765116373698,174.5519561767578,71.14695739746094C185.85422671000163,74.4862636311849,200.25984827677408,83.54241325378418,206.81002807617188,89.96415710449219C213.36020787556967,96.3859009552002,216.91157877604167,106.95937942504882,220.25088500976562,115.94982147216797C223.59019124348958,124.94026351928711,229.46533915201823,144.3399047088623,230.10751342773438,152.68817138671875C230.74968770345052,161.0364380645752,222.547778116862,172.01014994303387,224.73117065429688,174.19354248046875C226.91456319173176,176.37693501790363,238.40500244140625,170.36140482584636,245.34048461914062,167.921142578125C252.275966796875,165.48088033040364,263.8709416707357,159.48028442382812,273.1182556152344,157.16845703125C282.36556955973305,154.85662963867188,298.2974870808919,152.04898396809895,309.85662841796875,151.7921142578125C321.4157697550456,151.53524454752605,341.94742106119793,152.80764567057292,353.763427734375,155.3763427734375C365.57943440755207,157.94503987630208,382.6612657674154,164.31899073282878,392.29388427734375,169.7132568359375C401.9265027872721,175.10752293904622,414.8028654988607,185.30466395060222,420.9677429199219,193.01075744628906C427.13262034098307,200.7168509419759,432.9928295898437,214.87156234741212,435.3046569824219,223.47669982910156C437.616484375,232.081837310791,438.5095546468099,246.11111597696942,437.0967712402344,253.04660034179688C435.6839878336589,259.98208470662433,431.6129059855143,268.78136352539065,425.4480285644531,271.8638000488281C419.28315114339193,274.9462365722656,402.6911382039388,276.863798828125,394.08599853515625,274.5519714355469C385.4808588663737,272.2401440429687,369.1367812093099,261.7712121073405,365.41217041015625,255.73477172851562C361.6875596110026,249.69833134969076,364.88947041829425,238.73058120727538,368.100341796875,232.43727111816406C371.31121317545575,226.14396102905275,381.7771560668945,215.42413309733072,387.8135986328125,211.8279571533203C393.8500411987305,208.2317812093099,398.39904632568357,208.11828063964845,410.2150573730469,207.34767150878906C422.0310684204102,206.57706237792968,455.866181233724,204.39665669759114,470.2508850097656,206.4516143798828C484.6355887858073,208.50657206217448,502.4820555623372,215.6481451924642,510.5734558105469,221.68458557128906C518.6648560587565,227.72102595011393,522.9778994750976,241.37396062215169,526.7025146484375,248.56631469726562C530.4271298217774,255.75866877237956,535.4032293701172,265.3136224365234,536.5591430664062,271.8638000488281C537.7150567626953,278.41397766113283,532.7120711263021,291.5680963134766,534.7670288085938,294.2652282714844C536.8219864908854,296.96236022949216,540.8781384277344,291.45160888671876,550.8960571289062,290.6809997558594C560.9139758300781,289.910390625,592.3297387695312,287.86140665690107,604.6594848632812,288.8888854980469C616.9892309570313,289.9163643391927,629.2114501953125,294.8954551188151,636.9175415039062,297.8494567871094C644.6236328125,300.80345845540364,654.3129972330729,305.64515380859376,658.4229125976562,309.4981994628906C662.5328279622396,313.3512451171875,664.5638907877604,322.547778116862,665.5913696289062,324.7311706542969" fill="none" stroke-width="32" stroke="hsl(180, 69%, 30%)" stroke-linecap="round" stroke-dasharray="10 0"></path><defs><linearGradient id="SvgjsLinearGradient1004"><stop stop-color="hsl(37, 99%, 67%)" offset="0"></stop><stop stop-color="hsl(316, 73%, 52%)" offset="1"></stop></linearGradient></defs></svg>